<mxfile host="app.diagrams.net" agent="Mozilla/5.0 (Windows NT 10.0; Win64; x64) AppleWebKit/537.36 (KHTML, like Gecko) Chrome/138.0.0.0 Safari/537.36" version="28.0.7">
  <diagram name="Page-1" id="4__xQdGxnDkYmad7EHZa">
    <mxGraphModel dx="981" dy="529" grid="1" gridSize="10" guides="1" tooltips="1" connect="1" arrows="1" fold="1" page="1" pageScale="1" pageWidth="850" pageHeight="1100" math="0" shadow="0">
      <root>
        <mxCell id="0" />
        <mxCell id="1" parent="0" />
        <mxCell id="vT9s_zEq8HUFaWRvjgCT-1" value="User" style="swimlane;fontStyle=1;align=center;verticalAlign=top;childLayout=stackLayout;horizontal=1;startSize=26;horizontalStack=0;resizeParent=1;resizeParentMax=0;resizeLast=0;collapsible=1;marginBottom=0;whiteSpace=wrap;html=1;fillColor=#fff2cc;strokeColor=#000000;" vertex="1" parent="1">
          <mxGeometry x="115" y="140" width="170" height="150" as="geometry" />
        </mxCell>
        <mxCell id="vT9s_zEq8HUFaWRvjgCT-2" value="- name: String&lt;div&gt;- email: String&lt;/div&gt;&lt;div&gt;- library: List&lt;/div&gt;" style="text;strokeColor=none;fillColor=default;align=left;verticalAlign=top;spacingLeft=4;spacingRight=4;overflow=hidden;rotatable=0;points=[[0,0.5],[1,0.5]];portConstraint=eastwest;whiteSpace=wrap;html=1;" vertex="1" parent="vT9s_zEq8HUFaWRvjgCT-1">
          <mxGeometry y="26" width="170" height="54" as="geometry" />
        </mxCell>
        <mxCell id="vT9s_zEq8HUFaWRvjgCT-3" value="" style="line;strokeWidth=1;fillColor=none;align=left;verticalAlign=middle;spacingTop=-1;spacingLeft=3;spacingRight=3;rotatable=0;labelPosition=right;points=[];portConstraint=eastwest;strokeColor=inherit;" vertex="1" parent="vT9s_zEq8HUFaWRvjgCT-1">
          <mxGeometry y="80" width="170" height="8" as="geometry" />
        </mxCell>
        <mxCell id="vT9s_zEq8HUFaWRvjgCT-4" value="+ buyNewBooks()&lt;div&gt;+ viewLibrary()&lt;/div&gt;&lt;div&gt;+ readBook()&lt;/div&gt;" style="text;strokeColor=none;fillColor=default;align=left;verticalAlign=top;spacingLeft=4;spacingRight=4;overflow=hidden;rotatable=0;points=[[0,0.5],[1,0.5]];portConstraint=eastwest;whiteSpace=wrap;html=1;" vertex="1" parent="vT9s_zEq8HUFaWRvjgCT-1">
          <mxGeometry y="88" width="170" height="62" as="geometry" />
        </mxCell>
        <mxCell id="vT9s_zEq8HUFaWRvjgCT-5" value="Library" style="swimlane;fontStyle=1;align=center;verticalAlign=top;childLayout=stackLayout;horizontal=1;startSize=26;horizontalStack=0;resizeParent=1;resizeParentMax=0;resizeLast=0;collapsible=1;marginBottom=0;whiteSpace=wrap;html=1;fillColor=#cdffa3;strokeColor=#000000;" vertex="1" parent="1">
          <mxGeometry x="115" y="340" width="170" height="110" as="geometry" />
        </mxCell>
        <mxCell id="vT9s_zEq8HUFaWRvjgCT-6" value="- books: List" style="text;strokeColor=none;fillColor=default;align=left;verticalAlign=top;spacingLeft=4;spacingRight=4;overflow=hidden;rotatable=0;points=[[0,0.5],[1,0.5]];portConstraint=eastwest;whiteSpace=wrap;html=1;" vertex="1" parent="vT9s_zEq8HUFaWRvjgCT-5">
          <mxGeometry y="26" width="170" height="34" as="geometry" />
        </mxCell>
        <mxCell id="vT9s_zEq8HUFaWRvjgCT-7" value="" style="line;strokeWidth=1;fillColor=none;align=left;verticalAlign=middle;spacingTop=-1;spacingLeft=3;spacingRight=3;rotatable=0;labelPosition=right;points=[];portConstraint=eastwest;strokeColor=inherit;" vertex="1" parent="vT9s_zEq8HUFaWRvjgCT-5">
          <mxGeometry y="60" width="170" height="8" as="geometry" />
        </mxCell>
        <mxCell id="vT9s_zEq8HUFaWRvjgCT-8" value="+ addBook()&lt;div&gt;+ removeBook()&lt;/div&gt;" style="text;strokeColor=none;fillColor=default;align=left;verticalAlign=top;spacingLeft=4;spacingRight=4;overflow=hidden;rotatable=0;points=[[0,0.5],[1,0.5]];portConstraint=eastwest;whiteSpace=wrap;html=1;" vertex="1" parent="vT9s_zEq8HUFaWRvjgCT-5">
          <mxGeometry y="68" width="170" height="42" as="geometry" />
        </mxCell>
        <mxCell id="vT9s_zEq8HUFaWRvjgCT-9" value="Online Bookstore" style="swimlane;fontStyle=1;align=center;verticalAlign=top;childLayout=stackLayout;horizontal=1;startSize=26;horizontalStack=0;resizeParent=1;resizeParentMax=0;resizeLast=0;collapsible=1;marginBottom=0;whiteSpace=wrap;html=1;fillColor=#ffcccc;strokeColor=#000000;" vertex="1" parent="1">
          <mxGeometry x="450" y="170" width="170" height="110" as="geometry" />
        </mxCell>
        <mxCell id="vT9s_zEq8HUFaWRvjgCT-10" value="&lt;div&gt;- inventory: List&lt;/div&gt;" style="text;align=left;verticalAlign=top;spacingLeft=4;spacingRight=4;overflow=hidden;rotatable=0;points=[[0,0.5],[1,0.5]];portConstraint=eastwest;whiteSpace=wrap;html=1;fillColor=default;" vertex="1" parent="vT9s_zEq8HUFaWRvjgCT-9">
          <mxGeometry y="26" width="170" height="34" as="geometry" />
        </mxCell>
        <mxCell id="vT9s_zEq8HUFaWRvjgCT-11" value="" style="line;strokeWidth=1;fillColor=none;align=left;verticalAlign=middle;spacingTop=-1;spacingLeft=3;spacingRight=3;rotatable=0;labelPosition=right;points=[];portConstraint=eastwest;strokeColor=inherit;" vertex="1" parent="vT9s_zEq8HUFaWRvjgCT-9">
          <mxGeometry y="60" width="170" height="8" as="geometry" />
        </mxCell>
        <mxCell id="vT9s_zEq8HUFaWRvjgCT-12" value="+ displayBooks()&lt;div&gt;+ purchaseBook()&lt;/div&gt;" style="text;strokeColor=none;fillColor=default;align=left;verticalAlign=top;spacingLeft=4;spacingRight=4;overflow=hidden;rotatable=0;points=[[0,0.5],[1,0.5]];portConstraint=eastwest;whiteSpace=wrap;html=1;" vertex="1" parent="vT9s_zEq8HUFaWRvjgCT-9">
          <mxGeometry y="68" width="170" height="42" as="geometry" />
        </mxCell>
        <mxCell id="vT9s_zEq8HUFaWRvjgCT-13" value="Book" style="swimlane;fontStyle=1;align=center;verticalAlign=top;childLayout=stackLayout;horizontal=1;startSize=26;horizontalStack=0;resizeParent=1;resizeParentMax=0;resizeLast=0;collapsible=1;marginBottom=0;whiteSpace=wrap;html=1;fillColor=#a3f9ff;strokeColor=#000000;" vertex="1" parent="1">
          <mxGeometry x="115" y="500" width="170" height="150" as="geometry" />
        </mxCell>
        <mxCell id="vT9s_zEq8HUFaWRvjgCT-14" value="- title: String&lt;div&gt;- author: String&lt;/div&gt;&lt;div&gt;- genre: String&lt;/div&gt;&lt;div&gt;- price: Integer&lt;/div&gt;" style="text;strokeColor=none;fillColor=default;align=left;verticalAlign=top;spacingLeft=4;spacingRight=4;overflow=hidden;rotatable=0;points=[[0,0.5],[1,0.5]];portConstraint=eastwest;whiteSpace=wrap;html=1;" vertex="1" parent="vT9s_zEq8HUFaWRvjgCT-13">
          <mxGeometry y="26" width="170" height="74" as="geometry" />
        </mxCell>
        <mxCell id="vT9s_zEq8HUFaWRvjgCT-15" value="" style="line;strokeWidth=1;fillColor=none;align=left;verticalAlign=middle;spacingTop=-1;spacingLeft=3;spacingRight=3;rotatable=0;labelPosition=right;points=[];portConstraint=eastwest;strokeColor=inherit;" vertex="1" parent="vT9s_zEq8HUFaWRvjgCT-13">
          <mxGeometry y="100" width="170" height="8" as="geometry" />
        </mxCell>
        <mxCell id="vT9s_zEq8HUFaWRvjgCT-16" value="+ openBook()&lt;div&gt;+ saveReadingProgress()&lt;/div&gt;" style="text;strokeColor=none;fillColor=default;align=left;verticalAlign=top;spacingLeft=4;spacingRight=4;overflow=hidden;rotatable=0;points=[[0,0.5],[1,0.5]];portConstraint=eastwest;whiteSpace=wrap;html=1;" vertex="1" parent="vT9s_zEq8HUFaWRvjgCT-13">
          <mxGeometry y="108" width="170" height="42" as="geometry" />
        </mxCell>
        <mxCell id="vT9s_zEq8HUFaWRvjgCT-17" value="" style="endArrow=diamondThin;endFill=1;endSize=14;html=1;rounded=0;exitX=0.5;exitY=1;exitDx=0;exitDy=0;entryX=0.5;entryY=0;entryDx=0;entryDy=0;" edge="1" parent="1" source="vT9s_zEq8HUFaWRvjgCT-1" target="vT9s_zEq8HUFaWRvjgCT-5">
          <mxGeometry width="160" relative="1" as="geometry">
            <mxPoint x="195" y="450" as="sourcePoint" />
            <mxPoint x="355" y="450" as="targetPoint" />
          </mxGeometry>
        </mxCell>
        <mxCell id="vT9s_zEq8HUFaWRvjgCT-18" value="" style="endArrow=diamondThin;endFill=1;endSize=14;html=1;rounded=0;entryX=0.5;entryY=0;entryDx=0;entryDy=0;exitX=0.5;exitY=1.011;exitDx=0;exitDy=0;exitPerimeter=0;" edge="1" parent="1" source="vT9s_zEq8HUFaWRvjgCT-8" target="vT9s_zEq8HUFaWRvjgCT-13">
          <mxGeometry width="160" relative="1" as="geometry">
            <mxPoint x="200" y="450" as="sourcePoint" />
            <mxPoint x="200" y="490" as="targetPoint" />
          </mxGeometry>
        </mxCell>
        <mxCell id="vT9s_zEq8HUFaWRvjgCT-19" value="Use" style="endArrow=open;endSize=12;dashed=1;html=1;rounded=0;entryX=-0.011;entryY=0.88;entryDx=0;entryDy=0;entryPerimeter=0;exitX=0.999;exitY=0.343;exitDx=0;exitDy=0;exitPerimeter=0;" edge="1" parent="1" source="vT9s_zEq8HUFaWRvjgCT-3" target="vT9s_zEq8HUFaWRvjgCT-10">
          <mxGeometry width="160" relative="1" as="geometry">
            <mxPoint x="305" y="230" as="sourcePoint" />
            <mxPoint x="475" y="267.31" as="targetPoint" />
          </mxGeometry>
        </mxCell>
        <mxCell id="vT9s_zEq8HUFaWRvjgCT-20" value="Extends" style="endArrow=block;endSize=16;endFill=0;html=1;rounded=0;exitX=0.51;exitY=1.052;exitDx=0;exitDy=0;exitPerimeter=0;entryX=0.465;entryY=-0.032;entryDx=0;entryDy=0;entryPerimeter=0;" edge="1" parent="1" source="vT9s_zEq8HUFaWRvjgCT-12" target="vT9s_zEq8HUFaWRvjgCT-25">
          <mxGeometry width="160" relative="1" as="geometry">
            <mxPoint x="580" y="290" as="sourcePoint" />
            <mxPoint x="740" y="290" as="targetPoint" />
          </mxGeometry>
        </mxCell>
        <mxCell id="vT9s_zEq8HUFaWRvjgCT-21" value="E-Bookstore" style="swimlane;fontStyle=1;align=center;verticalAlign=top;childLayout=stackLayout;horizontal=1;startSize=26;horizontalStack=0;resizeParent=1;resizeParentMax=0;resizeLast=0;collapsible=1;marginBottom=0;whiteSpace=wrap;html=1;fillColor=light-dark(#E7C0FF,#572B2B);strokeColor=#000000;" vertex="1" parent="1">
          <mxGeometry x="335" y="350" width="170" height="110" as="geometry" />
        </mxCell>
        <mxCell id="vT9s_zEq8HUFaWRvjgCT-22" value="&lt;div&gt;- inventory: List&lt;/div&gt;" style="text;align=left;verticalAlign=top;spacingLeft=4;spacingRight=4;overflow=hidden;rotatable=0;points=[[0,0.5],[1,0.5]];portConstraint=eastwest;whiteSpace=wrap;html=1;fillColor=default;" vertex="1" parent="vT9s_zEq8HUFaWRvjgCT-21">
          <mxGeometry y="26" width="170" height="34" as="geometry" />
        </mxCell>
        <mxCell id="vT9s_zEq8HUFaWRvjgCT-23" value="" style="line;strokeWidth=1;fillColor=none;align=left;verticalAlign=middle;spacingTop=-1;spacingLeft=3;spacingRight=3;rotatable=0;labelPosition=right;points=[];portConstraint=eastwest;strokeColor=inherit;" vertex="1" parent="vT9s_zEq8HUFaWRvjgCT-21">
          <mxGeometry y="60" width="170" height="8" as="geometry" />
        </mxCell>
        <mxCell id="vT9s_zEq8HUFaWRvjgCT-24" value="+ downloadBook()&lt;div&gt;+ chooseFormat()&lt;/div&gt;" style="text;strokeColor=none;fillColor=default;align=left;verticalAlign=top;spacingLeft=4;spacingRight=4;overflow=hidden;rotatable=0;points=[[0,0.5],[1,0.5]];portConstraint=eastwest;whiteSpace=wrap;html=1;" vertex="1" parent="vT9s_zEq8HUFaWRvjgCT-21">
          <mxGeometry y="68" width="170" height="42" as="geometry" />
        </mxCell>
        <mxCell id="vT9s_zEq8HUFaWRvjgCT-25" value="Physical Bookstore" style="swimlane;fontStyle=1;align=center;verticalAlign=top;childLayout=stackLayout;horizontal=1;startSize=26;horizontalStack=0;resizeParent=1;resizeParentMax=0;resizeLast=0;collapsible=1;marginBottom=0;whiteSpace=wrap;html=1;fillColor=light-dark(#E7C0FF,#572B2B);strokeColor=#000000;" vertex="1" parent="1">
          <mxGeometry x="565" y="350" width="170" height="110" as="geometry" />
        </mxCell>
        <mxCell id="vT9s_zEq8HUFaWRvjgCT-26" value="&lt;div&gt;- inventory: List&lt;/div&gt;" style="text;align=left;verticalAlign=top;spacingLeft=4;spacingRight=4;overflow=hidden;rotatable=0;points=[[0,0.5],[1,0.5]];portConstraint=eastwest;whiteSpace=wrap;html=1;fillColor=default;" vertex="1" parent="vT9s_zEq8HUFaWRvjgCT-25">
          <mxGeometry y="26" width="170" height="34" as="geometry" />
        </mxCell>
        <mxCell id="vT9s_zEq8HUFaWRvjgCT-27" value="" style="line;strokeWidth=1;fillColor=none;align=left;verticalAlign=middle;spacingTop=-1;spacingLeft=3;spacingRight=3;rotatable=0;labelPosition=right;points=[];portConstraint=eastwest;strokeColor=inherit;" vertex="1" parent="vT9s_zEq8HUFaWRvjgCT-25">
          <mxGeometry y="60" width="170" height="8" as="geometry" />
        </mxCell>
        <mxCell id="vT9s_zEq8HUFaWRvjgCT-28" value="+ shipBook()" style="text;strokeColor=none;fillColor=default;align=left;verticalAlign=top;spacingLeft=4;spacingRight=4;overflow=hidden;rotatable=0;points=[[0,0.5],[1,0.5]];portConstraint=eastwest;whiteSpace=wrap;html=1;" vertex="1" parent="vT9s_zEq8HUFaWRvjgCT-25">
          <mxGeometry y="68" width="170" height="42" as="geometry" />
        </mxCell>
        <mxCell id="vT9s_zEq8HUFaWRvjgCT-29" value="Extends" style="endArrow=block;endSize=16;endFill=0;html=1;rounded=0;exitX=0.5;exitY=1;exitDx=0;exitDy=0;entryX=0.544;entryY=-0.027;entryDx=0;entryDy=0;entryPerimeter=0;" edge="1" parent="1" source="vT9s_zEq8HUFaWRvjgCT-9" target="vT9s_zEq8HUFaWRvjgCT-21">
          <mxGeometry width="160" relative="1" as="geometry">
            <mxPoint x="495" y="286" as="sourcePoint" />
            <mxPoint x="602" y="350" as="targetPoint" />
          </mxGeometry>
        </mxCell>
      </root>
    </mxGraphModel>
  </diagram>
</mxfile>
